<svg xmlns="http://www.w3.org/2000/svg" xmlns:xlink="http://www.w3.org/1999/xlink" width="500" zoomAndPan="magnify" viewBox="0 0 375 374.999991" height="500" preserveAspectRatio="xMidYMid meet" version="1.0"><defs><g/><clipPath id="d0e3f68ea5"><path d="M 63.179688 58 L 320.429688 58 L 320.429688 324 L 63.179688 324 Z M 63.179688 58 " clip-rule="nonzero"/></clipPath></defs><rect x="-37.5" width="450" fill="#ffffff" y="-37.499999" height="449.999989" fill-opacity="1"/><rect x="-37.5" width="450" fill="#ffffff" y="-37.499999" height="449.999989" fill-opacity="1"/><g clip-path="url(#d0e3f68ea5)"><path fill="#3d3b3a" d="M 159.542969 62.1875 C 161.628906 61.664062 163.726562 61.191406 165.835938 60.769531 C 167.945312 60.347656 170.0625 59.980469 172.1875 59.660156 C 174.316406 59.34375 176.449219 59.074219 178.585938 58.859375 C 180.726562 58.644531 182.871094 58.484375 185.015625 58.371094 C 187.164062 58.261719 189.3125 58.203125 191.464844 58.199219 C 193.613281 58.191406 195.761719 58.238281 197.910156 58.335938 C 200.058594 58.433594 202.203125 58.585938 204.34375 58.785156 C 206.484375 58.988281 208.617188 59.242188 210.746094 59.550781 C 212.875 59.855469 214.996094 60.214844 217.105469 60.621094 C 219.214844 61.03125 221.316406 61.492188 223.40625 62.003906 C 225.492188 62.515625 227.566406 63.074219 229.628906 63.6875 C 231.691406 64.300781 233.734375 64.960938 235.765625 65.671875 C 237.792969 66.382812 239.804688 67.144531 241.796875 67.953125 C 243.789062 68.761719 245.757812 69.621094 247.710938 70.523438 C 249.660156 71.429688 251.589844 72.382812 253.492188 73.378906 C 255.398438 74.378906 257.277344 75.421875 259.128906 76.511719 C 260.984375 77.601562 262.808594 78.734375 264.605469 79.914062 C 266.40625 81.09375 268.175781 82.316406 269.914062 83.578125 C 271.652344 84.84375 273.359375 86.148438 275.035156 87.496094 C 276.710938 88.84375 278.351562 90.230469 279.960938 91.660156 C 281.570312 93.085938 283.140625 94.550781 284.679688 96.054688 C 286.214844 97.558594 287.714844 99.097656 289.175781 100.675781 C 290.640625 102.25 292.0625 103.863281 293.445312 105.507812 C 294.832031 107.152344 296.171875 108.832031 297.476562 110.542969 C 298.777344 112.253906 300.039062 113.996094 301.253906 115.769531 C 302.472656 117.539062 303.648438 119.339844 304.777344 121.167969 C 305.90625 123 306.992188 124.855469 308.03125 126.734375 C 309.074219 128.617188 310.066406 130.523438 311.015625 132.453125 C 311.960938 134.382812 312.863281 136.335938 313.714844 138.308594 C 314.566406 140.285156 315.371094 142.277344 316.125 144.289062 C 316.882812 146.304688 317.589844 148.332031 318.246094 150.382812 C 318.902344 152.429688 319.511719 154.492188 320.066406 156.566406 C 320.273438 157.332031 320.476562 158.117188 320.671875 158.914062 L 318.640625 159.617188 C 318.433594 158.785156 318.222656 157.953125 318 157.117188 C 317.445312 155.0625 316.84375 153.015625 316.195312 150.988281 C 315.542969 148.957031 314.839844 146.945312 314.089844 144.953125 C 313.339844 142.957031 312.542969 140.980469 311.695312 139.027344 C 310.847656 137.070312 309.957031 135.136719 309.015625 133.226562 C 308.074219 131.3125 307.085938 129.425781 306.050781 127.5625 C 305.015625 125.699219 303.9375 123.863281 302.816406 122.050781 C 301.691406 120.238281 300.523438 118.457031 299.3125 116.703125 C 298.101562 114.949219 296.847656 113.226562 295.550781 111.535156 C 294.257812 109.84375 292.921875 108.183594 291.542969 106.558594 C 290.167969 104.929688 288.753906 103.339844 287.296875 101.78125 C 285.84375 100.222656 284.351562 98.703125 282.820312 97.21875 C 281.292969 95.734375 279.726562 94.289062 278.128906 92.878906 C 276.527344 91.472656 274.894531 90.105469 273.226562 88.777344 C 271.5625 87.449219 269.863281 86.164062 268.132812 84.917969 C 266.402344 83.671875 264.644531 82.472656 262.855469 81.3125 C 261.066406 80.15625 259.25 79.039062 257.40625 77.972656 C 255.5625 76.902344 253.695312 75.878906 251.800781 74.898438 C 249.910156 73.921875 247.992188 72.992188 246.054688 72.105469 C 244.113281 71.222656 242.15625 70.386719 240.175781 69.597656 C 238.195312 68.808594 236.199219 68.070312 234.179688 67.378906 C 232.164062 66.6875 230.132812 66.046875 228.085938 65.457031 C 226.039062 64.867188 223.976562 64.324219 221.902344 63.835938 C 219.828125 63.34375 217.746094 62.90625 215.648438 62.519531 C 213.554688 62.128906 211.449219 61.792969 209.339844 61.507812 C 207.226562 61.222656 205.109375 60.992188 202.984375 60.808594 C 200.863281 60.628906 198.734375 60.5 196.605469 60.421875 C 194.476562 60.34375 192.347656 60.320312 190.214844 60.347656 C 188.085938 60.375 185.957031 60.453125 183.828125 60.582031 C 181.699219 60.714844 179.578125 60.898438 177.460938 61.132812 C 175.34375 61.367188 173.230469 61.65625 171.128906 61.996094 C 169.023438 62.332031 166.929688 62.722656 164.84375 63.164062 C 162.757812 63.605469 160.6875 64.097656 158.625 64.640625 C 158.945312 63.828125 159.257812 63.019531 159.542969 62.191406 Z M 65.210938 222.667969 C 65.382812 223.351562 65.554688 224.03125 65.738281 224.714844 C 66.292969 226.777344 66.894531 228.828125 67.546875 230.859375 C 68.203125 232.894531 68.90625 234.910156 69.65625 236.910156 C 70.410156 238.910156 71.210938 240.890625 72.058594 242.851562 C 72.910156 244.8125 73.808594 246.75 74.753906 248.664062 C 75.695312 250.582031 76.6875 252.472656 77.726562 254.339844 C 78.765625 256.207031 79.847656 258.050781 80.976562 259.863281 C 82.101562 261.679688 83.273438 263.464844 84.492188 265.21875 C 85.707031 266.976562 86.964844 268.703125 88.265625 270.398438 C 89.566406 272.09375 90.90625 273.753906 92.289062 275.386719 C 93.671875 277.015625 95.089844 278.609375 96.550781 280.167969 C 98.011719 281.726562 99.507812 283.25 101.042969 284.734375 C 102.578125 286.222656 104.148438 287.667969 105.757812 289.078125 C 107.363281 290.488281 109 291.855469 110.675781 293.183594 C 112.347656 294.511719 114.054688 295.800781 115.789062 297.042969 C 117.527344 298.289062 119.292969 299.492188 121.085938 300.648438 C 122.882812 301.808594 124.703125 302.921875 126.554688 303.988281 C 128.40625 305.058594 130.28125 306.082031 132.179688 307.058594 C 134.078125 308.035156 136.003906 308.964844 137.949219 309.84375 C 139.894531 310.726562 141.859375 311.5625 143.847656 312.347656 C 145.835938 313.132812 147.839844 313.871094 149.863281 314.558594 C 151.882812 315.246094 153.921875 315.882812 155.976562 316.46875 C 158.03125 317.054688 160.097656 317.59375 162.179688 318.078125 C 164.261719 318.566406 166.351562 319 168.453125 319.382812 C 170.554688 319.765625 172.664062 320.097656 174.78125 320.375 C 176.902344 320.65625 179.023438 320.882812 181.152344 321.058594 C 183.28125 321.234375 185.414062 321.359375 187.550781 321.429688 C 189.6875 321.5 191.820312 321.515625 193.957031 321.484375 C 196.09375 321.449219 198.226562 321.363281 200.359375 321.222656 C 202.492188 321.085938 204.617188 320.894531 206.742188 320.652344 C 208.863281 320.40625 210.980469 320.113281 213.085938 319.765625 C 215.195312 319.417969 217.292969 319.019531 219.382812 318.570312 C 221.472656 318.121094 223.546875 317.617188 225.609375 317.066406 C 225.277344 317.878906 224.957031 318.691406 224.65625 319.519531 C 222.570312 320.050781 220.46875 320.535156 218.355469 320.964844 C 216.246094 321.394531 214.125 321.769531 211.992188 322.097656 C 209.863281 322.421875 207.726562 322.699219 205.582031 322.921875 C 203.4375 323.140625 201.292969 323.3125 199.140625 323.429688 C 196.988281 323.546875 194.835938 323.613281 192.679688 323.625 C 190.523438 323.636719 188.371094 323.597656 186.214844 323.507812 C 184.0625 323.414062 181.914062 323.269531 179.769531 323.074219 C 177.621094 322.875 175.480469 322.628906 173.347656 322.328125 C 171.214844 322.027344 169.089844 321.671875 166.972656 321.269531 C 164.855469 320.863281 162.75 320.40625 160.65625 319.902344 C 158.558594 319.394531 156.480469 318.835938 154.410156 318.226562 C 152.34375 317.617188 150.292969 316.960938 148.257812 316.253906 C 146.222656 315.542969 144.203125 314.785156 142.207031 313.980469 C 140.207031 313.171875 138.230469 312.320312 136.273438 311.414062 C 134.316406 310.511719 132.382812 309.5625 130.472656 308.566406 C 128.5625 307.570312 126.675781 306.527344 124.816406 305.4375 C 122.957031 304.347656 121.125 303.214844 119.320312 302.035156 C 117.515625 300.859375 115.742188 299.636719 113.996094 298.371094 C 112.25 297.109375 110.539062 295.800781 108.855469 294.453125 C 107.175781 293.105469 105.527344 291.71875 103.914062 290.289062 C 102.296875 288.863281 100.71875 287.394531 99.179688 285.890625 C 97.636719 284.382812 96.128906 282.84375 94.664062 281.265625 C 93.195312 279.6875 91.769531 278.074219 90.378906 276.425781 C 88.988281 274.777344 87.640625 273.097656 86.335938 271.382812 C 85.027344 269.667969 83.765625 267.925781 82.542969 266.148438 C 81.320312 264.375 80.140625 262.570312 79.007812 260.738281 C 77.875 258.90625 76.785156 257.046875 75.742188 255.160156 C 74.699219 253.277344 73.699219 251.367188 72.75 249.429688 C 71.800781 247.496094 70.894531 245.542969 70.039062 243.5625 C 69.183594 241.585938 68.378906 239.585938 67.621094 237.570312 C 66.863281 235.550781 66.152344 233.519531 65.496094 231.464844 C 64.835938 229.414062 64.226562 227.347656 63.667969 225.265625 C 63.503906 224.640625 63.339844 224.007812 63.179688 223.378906 Z M 65.210938 222.667969 " fill-opacity="1" fill-rule="evenodd"/></g><g fill="#000000" fill-opacity="1"><g transform="translate(74.856026, 193.124987)"><g><path d="M 14.671875 -1.25 C 14.128906 -0.894531 13.445312 -0.566406 12.625 -0.265625 C 11.800781 0.0351562 10.90625 0.1875 9.9375 0.1875 C 8.21875 0.1875 6.707031 -0.1875 5.40625 -0.9375 C 4.113281 -1.695312 3.113281 -2.710938 2.40625 -3.984375 C 1.707031 -5.265625 1.359375 -6.675781 1.359375 -8.21875 C 1.359375 -9.863281 1.710938 -11.34375 2.421875 -12.65625 C 3.128906 -13.976562 4.109375 -15.007812 5.359375 -15.75 C 6.617188 -16.5 8.039062 -16.875 9.625 -16.875 C 10.5625 -16.875 11.4375 -16.75 12.25 -16.5 C 13.070312 -16.257812 13.804688 -15.941406 14.453125 -15.546875 L 13.5625 -13.4375 C 12.28125 -14.300781 10.992188 -14.734375 9.703125 -14.734375 C 8.617188 -14.734375 7.617188 -14.445312 6.703125 -13.875 C 5.785156 -13.3125 5.050781 -12.539062 4.5 -11.5625 C 3.957031 -10.582031 3.6875 -9.507812 3.6875 -8.34375 C 3.6875 -7.132812 3.9375 -6.046875 4.4375 -5.078125 C 4.945312 -4.109375 5.664062 -3.347656 6.59375 -2.796875 C 7.519531 -2.253906 8.59375 -1.984375 9.8125 -1.984375 C 11.3125 -1.984375 12.613281 -2.40625 13.71875 -3.25 Z M 14.671875 -1.25 "/></g></g></g><g fill="#000000" fill-opacity="1"><g transform="translate(102.355353, 193.124987)"><g><path d="M 4.640625 -16.703125 L 4.640625 0 L 2.40625 0 L 2.40625 -16.703125 Z M 4.640625 -16.703125 "/></g></g></g><g fill="#000000" fill-opacity="1"><g transform="translate(120.87425, 193.124987)"><g><path d="M 16.953125 -16.703125 L 16.953125 0.546875 L 16.875 0.546875 L 4.625 -11.890625 L 4.671875 0 L 2.40625 0 L 2.40625 -17.203125 L 2.515625 -17.203125 L 14.75 -4.625 L 14.703125 -16.703125 Z M 16.953125 -16.703125 "/></g></g></g><g fill="#000000" fill-opacity="1"><g transform="translate(151.697959, 193.124987)"><g><path d="M 13.25 -16.703125 L 13.25 -14.546875 L 4.640625 -14.546875 L 4.640625 -9.46875 L 12.328125 -9.46875 L 12.328125 -7.328125 L 4.640625 -7.328125 L 4.640625 -2.171875 L 13.578125 -2.171875 L 13.578125 0 L 2.40625 0 L 2.40625 -16.703125 Z M 13.25 -16.703125 "/></g></g></g><g fill="#000000" fill-opacity="1"><g transform="translate(178.250768, 193.124987)"><g><path d="M 19 -17.234375 L 19 0 L 16.796875 0 L 16.796875 -10.8125 L 10.640625 -2.09375 L 10.59375 -2.09375 L 4.578125 -10.5 L 4.578125 0 L 2.40625 0 L 2.40625 -17.234375 L 2.421875 -17.234375 L 10.640625 -5.59375 L 18.984375 -17.234375 Z M 19 -17.234375 "/></g></g></g><g fill="#000000" fill-opacity="1"><g transform="translate(211.129127, 193.124987)"><g><path d="M 11.15625 -4.390625 L 4.734375 -4.390625 L 2.953125 0 L 0.734375 0 L 8.03125 -17.390625 L 8.171875 -17.390625 L 15.46875 0 L 12.890625 0 Z M 10.390625 -6.328125 L 8.015625 -12.421875 L 5.546875 -6.328125 Z M 10.390625 -6.328125 "/></g></g></g><g fill="#000000" fill-opacity="1"><g transform="translate(238.790056, 193.124987)"><g><path d="M 14.671875 -1.25 C 14.128906 -0.894531 13.445312 -0.566406 12.625 -0.265625 C 11.800781 0.0351562 10.90625 0.1875 9.9375 0.1875 C 8.21875 0.1875 6.707031 -0.1875 5.40625 -0.9375 C 4.113281 -1.695312 3.113281 -2.710938 2.40625 -3.984375 C 1.707031 -5.265625 1.359375 -6.675781 1.359375 -8.21875 C 1.359375 -9.863281 1.710938 -11.34375 2.421875 -12.65625 C 3.128906 -13.976562 4.109375 -15.007812 5.359375 -15.75 C 6.617188 -16.5 8.039062 -16.875 9.625 -16.875 C 10.5625 -16.875 11.4375 -16.75 12.25 -16.5 C 13.070312 -16.257812 13.804688 -15.941406 14.453125 -15.546875 L 13.5625 -13.4375 C 12.28125 -14.300781 10.992188 -14.734375 9.703125 -14.734375 C 8.617188 -14.734375 7.617188 -14.445312 6.703125 -13.875 C 5.785156 -13.3125 5.050781 -12.539062 4.5 -11.5625 C 3.957031 -10.582031 3.6875 -9.507812 3.6875 -8.34375 C 3.6875 -7.132812 3.9375 -6.046875 4.4375 -5.078125 C 4.945312 -4.109375 5.664062 -3.347656 6.59375 -2.796875 C 7.519531 -2.253906 8.59375 -1.984375 9.8125 -1.984375 C 11.3125 -1.984375 12.613281 -2.40625 13.71875 -3.25 Z M 14.671875 -1.25 "/></g></g></g><g fill="#000000" fill-opacity="1"><g transform="translate(266.289382, 193.124987)"><g><path d="M 4.4375 -5.90625 C 4.4375 -5.164062 4.613281 -4.5 4.96875 -3.90625 C 5.320312 -3.320312 5.800781 -2.851562 6.40625 -2.5 C 7.019531 -2.15625 7.691406 -1.984375 8.421875 -1.984375 C 9.191406 -1.984375 9.890625 -2.148438 10.515625 -2.484375 C 11.140625 -2.828125 11.628906 -3.296875 11.984375 -3.890625 C 12.335938 -4.492188 12.515625 -5.164062 12.515625 -5.90625 L 12.515625 -16.703125 L 14.703125 -16.703125 L 14.703125 -5.84375 C 14.703125 -4.65625 14.425781 -3.601562 13.875 -2.6875 C 13.320312 -1.769531 12.566406 -1.0625 11.609375 -0.5625 C 10.660156 -0.0625 9.597656 0.1875 8.421875 0.1875 C 7.273438 0.1875 6.222656 -0.0625 5.265625 -0.5625 C 4.304688 -1.0625 3.550781 -1.769531 3 -2.6875 C 2.457031 -3.601562 2.1875 -4.65625 2.1875 -5.84375 L 2.1875 -16.703125 L 4.4375 -16.703125 Z M 4.4375 -5.90625 "/></g></g></g><g fill="#000000" fill-opacity="1"><g transform="translate(294.665978, 193.124987)"><g><path d="M 9.84375 -8.65625 C 10.789062 -8.289062 11.539062 -7.765625 12.09375 -7.078125 C 12.65625 -6.390625 12.9375 -5.59375 12.9375 -4.6875 C 12.9375 -3.625 12.675781 -2.742188 12.15625 -2.046875 C 11.644531 -1.347656 10.96875 -0.832031 10.125 -0.5 C 9.289062 -0.164062 8.367188 0 7.359375 0 L 2.40625 0 L 2.40625 -16.703125 L 6.71875 -16.703125 C 8.425781 -16.703125 9.75 -16.347656 10.6875 -15.640625 C 11.625 -14.941406 12.09375 -13.894531 12.09375 -12.5 C 12.09375 -11.613281 11.894531 -10.84375 11.5 -10.1875 C 11.113281 -9.539062 10.5625 -9.03125 9.84375 -8.65625 Z M 4.640625 -9.40625 L 7.1875 -9.40625 C 8.039062 -9.40625 8.6875 -9.648438 9.125 -10.140625 C 9.570312 -10.628906 9.796875 -11.257812 9.796875 -12.03125 C 9.796875 -12.875 9.53125 -13.503906 9 -13.921875 C 8.476562 -14.335938 7.75 -14.546875 6.8125 -14.546875 L 4.640625 -14.546875 Z M 7.28125 -2.078125 C 8.25 -2.078125 9.046875 -2.296875 9.671875 -2.734375 C 10.304688 -3.171875 10.625 -3.816406 10.625 -4.671875 C 10.625 -5.546875 10.28125 -6.191406 9.59375 -6.609375 C 8.90625 -7.023438 8.078125 -7.234375 7.109375 -7.234375 L 4.640625 -7.234375 L 4.640625 -2.078125 Z M 7.28125 -2.078125 "/></g></g></g><g fill="#000000" fill-opacity="1"><g transform="translate(168.518343, 242.345913)"><g/></g></g><g fill="#000000" fill-opacity="1"><g transform="translate(176.461402, 242.345913)"><g><path d="M 5.234375 -1.890625 L 2.3125 -1.890625 L 1.53125 0 L 0.265625 0 L 3.8125 -8.359375 L 3.890625 -8.359375 L 7.453125 0 L 5.96875 0 Z M 4.796875 -2.984375 L 3.796875 -5.53125 L 2.75 -2.984375 Z M 4.796875 -2.984375 "/></g></g></g><g fill="#000000" fill-opacity="1"><g transform="translate(188.584778, 242.345913)"><g><path d="M 3.375 -8.03125 C 4.289062 -8.03125 5.003906 -7.800781 5.515625 -7.34375 C 6.023438 -6.882812 6.28125 -6.253906 6.28125 -5.453125 C 6.28125 -4.984375 6.1875 -4.546875 6 -4.140625 C 5.820312 -3.742188 5.53125 -3.421875 5.125 -3.171875 C 4.71875 -2.921875 4.191406 -2.796875 3.546875 -2.796875 L 2.390625 -2.796875 L 2.390625 0 L 1.109375 0 L 1.109375 -8.03125 Z M 3.546875 -4.03125 C 3.898438 -4.03125 4.1875 -4.101562 4.40625 -4.25 C 4.625 -4.40625 4.78125 -4.585938 4.875 -4.796875 C 4.96875 -5.015625 5.015625 -5.222656 5.015625 -5.421875 C 5.015625 -5.765625 4.90625 -6.078125 4.6875 -6.359375 C 4.46875 -6.648438 4.097656 -6.796875 3.578125 -6.796875 L 2.390625 -6.796875 L 2.390625 -4.03125 Z M 3.546875 -4.03125 "/></g></g></g><g fill="#000000" fill-opacity="1"><g transform="translate(199.737392, 242.345913)"><g><path d="M 3.375 -8.03125 C 4.289062 -8.03125 5.003906 -7.800781 5.515625 -7.34375 C 6.023438 -6.882812 6.28125 -6.253906 6.28125 -5.453125 C 6.28125 -4.984375 6.1875 -4.546875 6 -4.140625 C 5.820312 -3.742188 5.53125 -3.421875 5.125 -3.171875 C 4.71875 -2.921875 4.191406 -2.796875 3.546875 -2.796875 L 2.390625 -2.796875 L 2.390625 0 L 1.109375 0 L 1.109375 -8.03125 Z M 3.546875 -4.03125 C 3.898438 -4.03125 4.1875 -4.101562 4.40625 -4.25 C 4.625 -4.40625 4.78125 -4.585938 4.875 -4.796875 C 4.96875 -5.015625 5.015625 -5.222656 5.015625 -5.421875 C 5.015625 -5.765625 4.90625 -6.078125 4.6875 -6.359375 C 4.46875 -6.648438 4.097656 -6.796875 3.578125 -6.796875 L 2.390625 -6.796875 L 2.390625 -4.03125 Z M 3.546875 -4.03125 "/></g></g></g><g fill="#3d3b3a" fill-opacity="1"><g transform="translate(167.705282, 162.652876)"><g><path d="M 54.722656 -57.515625 C 54.117188 -57.757812 53.148438 -57.878906 50.355469 -58.121094 C 47.808594 -58.363281 29 -59.09375 26.695312 -59.09375 L 23.296875 -59.214844 L 20.992188 -59.214844 C 21.355469 -59.699219 22.449219 -60.914062 23.175781 -61.519531 C 23.660156 -61.882812 24.148438 -62.367188 24.632812 -62.976562 C 25.117188 -63.582031 26.816406 -65.160156 27.664062 -65.886719 L 28.878906 -66.859375 L 29.363281 -67.464844 C 29.726562 -67.828125 29.726562 -67.949219 29.484375 -68.3125 C 29.363281 -68.558594 29.121094 -68.679688 29 -68.679688 C 28.757812 -68.679688 27.300781 -67.585938 27.179688 -67.222656 L 26.089844 -66.25 C 24.753906 -65.160156 24.511719 -65.039062 24.269531 -64.675781 C 24.023438 -64.429688 20.871094 -61.398438 20.386719 -61.035156 L 20.019531 -60.671875 L 19.050781 -59.578125 L 18.566406 -59.09375 L 1.457031 -58.730469 L -1.214844 -58.484375 C -3.277344 -58.363281 -9.101562 -57.878906 -10.070312 -57.636719 C -11.042969 -57.394531 -11.527344 -56.910156 -11.164062 -56.542969 C -11.042969 -56.300781 -8.613281 -56.542969 -6.917969 -56.910156 C -6.550781 -57.03125 -3.640625 -57.394531 -0.726562 -57.515625 L 2.304688 -57.757812 L 5.582031 -57.878906 L 9.585938 -58.121094 C 10.679688 -58.242188 14.804688 -58.242188 17.472656 -58.242188 C 17.351562 -58 17.109375 -57.878906 16.988281 -57.636719 L 16.625 -57.394531 L 16.257812 -56.910156 L 14.804688 -55.332031 C 13.105469 -53.511719 7.765625 -47.6875 6.671875 -46.109375 C 6.671875 -46.109375 4.730469 -43.804688 4.730469 -43.925781 C 4.730469 -43.804688 4.246094 -43.316406 3.761719 -42.832031 C 3.15625 -42.226562 2.183594 -41.132812 -0.363281 -38.101562 L -1.335938 -37.007812 L -2.304688 -35.796875 C -2.546875 -35.429688 -2.667969 -35.1875 -2.789062 -35.1875 C -3.035156 -35.1875 -3.640625 -34.460938 -5.582031 -31.914062 C -6.308594 -31.0625 -6.917969 -30.335938 -7.160156 -30.214844 C -7.28125 -29.972656 -8.492188 -28.515625 -9.828125 -26.9375 L -12.863281 -23.175781 L -17.835938 -16.503906 C -19.050781 -14.804688 -19.777344 -13.832031 -20.019531 -13.953125 L -20.019531 -13.710938 C -20.019531 -13.589844 -20.019531 -13.347656 -20.140625 -13.105469 C -20.265625 -12.742188 -20.386719 -12.621094 -20.507812 -12.742188 C -20.507812 -12.621094 -20.628906 -12.496094 -20.628906 -12.496094 C -20.628906 -12.253906 -20.628906 -12.132812 -20.75 -12.132812 C -20.75 -12.253906 -21.113281 -11.527344 -21.355469 -10.679688 C -21.839844 -9.464844 -21.960938 -8.980469 -21.839844 -8.371094 C -21.597656 -7.644531 -21.476562 -7.523438 -21.113281 -7.402344 C -20.628906 -7.402344 -20.386719 -7.402344 -20.265625 -7.644531 C -20.019531 -8.007812 -20.019531 -8.007812 -20.507812 -8.128906 C -20.992188 -8.128906 -20.992188 -8.25 -20.992188 -8.738281 C -20.871094 -9.34375 -19.898438 -11.40625 -19.050781 -12.742188 C -16.746094 -16.136719 -10.679688 -23.902344 -6.796875 -28.394531 L -4.855469 -30.699219 L -0.847656 -35.308594 L 2.425781 -38.949219 L 3.519531 -40.285156 L 4.976562 -41.863281 C 6.066406 -43.074219 7.039062 -44.289062 9.101562 -46.714844 C 9.828125 -47.566406 10.679688 -48.414062 11.042969 -48.777344 C 11.40625 -49.144531 12.011719 -49.871094 12.375 -50.355469 L 14.4375 -52.539062 C 15.773438 -53.996094 16.625 -54.722656 17.351562 -55.695312 L 18.445312 -56.785156 C 18.808594 -57.273438 19.171875 -57.515625 19.414062 -57.878906 L 20.019531 -58.242188 C 20.992188 -58.363281 21.71875 -58.242188 22.082031 -58.242188 L 22.570312 -58.242188 C 29.605469 -58.121094 46.472656 -57.636719 48.898438 -57.273438 C 49.628906 -57.03125 50.839844 -57.03125 51.449219 -56.910156 C 52.660156 -56.910156 52.660156 -56.910156 52.417969 -56.421875 C 52.175781 -56.179688 52.296875 -55.9375 52.417969 -55.816406 C 52.660156 -55.574219 52.78125 -55.453125 52.902344 -55.574219 L 54.117188 -56.058594 C 55.453125 -56.664062 55.574219 -57.03125 54.722656 -57.515625 Z M 54.722656 -57.515625 "/></g></g></g><g fill="#3d3b3a" fill-opacity="1"><g transform="translate(180.081816, 162.652876)"><g><path d="M 43.683594 -66.738281 C 43.441406 -67.101562 42.226562 -67.101562 41.011719 -66.859375 L 39.679688 -66.617188 C 38.949219 -66.496094 37.738281 -66.128906 37.25 -65.886719 L 36.28125 -65.644531 C 33.734375 -64.917969 30.335938 -63.460938 27.785156 -62.003906 L 26.453125 -61.277344 L 25.359375 -60.546875 L 23.296875 -59.214844 C 21.839844 -58.242188 20.140625 -57.03125 20.019531 -56.910156 L 16.136719 -53.875 L 13.589844 -51.691406 L 9.464844 -48.050781 C 8.859375 -47.445312 8.128906 -46.714844 7.765625 -46.472656 L 6.671875 -46.109375 C 6.066406 -45.867188 5.582031 -45.746094 5.582031 -45.625 C 5.582031 -45.625 5.460938 -45.503906 5.339844 -45.503906 C 5.21875 -45.503906 4.855469 -45.382812 4.367188 -45.136719 C 4.003906 -45.015625 3.761719 -44.894531 3.640625 -44.773438 L 2.425781 -44.289062 L -1.335938 -42.953125 C -1.699219 -42.832031 -2.183594 -42.589844 -2.304688 -42.46875 C -2.546875 -41.984375 -2.425781 -41.742188 -1.941406 -41.742188 C -1.699219 -41.742188 -1.214844 -41.863281 -0.726562 -41.984375 L 0.484375 -42.589844 C 0.847656 -42.832031 1.335938 -42.953125 1.820312 -43.074219 L 4.003906 -43.804688 C 4.125 -43.925781 4.367188 -43.925781 4.609375 -44.046875 C 4.609375 -44.167969 5.460938 -44.410156 5.582031 -44.289062 C 5.582031 -44.289062 4.730469 -43.316406 3.519531 -42.226562 L -0.726562 -37.738281 L -1.214844 -37.25 L -2.304688 -35.917969 L -3.398438 -34.703125 C -3.761719 -34.339844 -4.246094 -33.855469 -4.246094 -33.367188 C -4.246094 -33.003906 -3.761719 -32.761719 -3.519531 -32.640625 C -3.15625 -32.519531 -3.035156 -32.640625 -2.914062 -32.761719 L -2.546875 -33.003906 L -1.941406 -33.488281 L -1.578125 -33.855469 L -1.214844 -34.097656 L -0.972656 -34.21875 L 0.484375 -35.675781 L 1.214844 -36.039062 L 1.335938 -36.039062 L 2.0625 -36.523438 C 2.304688 -36.765625 2.914062 -37.007812 3.398438 -37.128906 L 4.730469 -37.617188 C 5.097656 -37.738281 5.339844 -37.859375 5.339844 -37.738281 C 5.339844 -37.617188 5.339844 -37.617188 5.21875 -37.617188 C 5.097656 -37.617188 4.246094 -36.523438 3.882812 -35.796875 L 3.519531 -35.066406 C 3.035156 -33.976562 3.035156 -33.488281 3.640625 -33.003906 C 4.003906 -32.761719 4.246094 -32.640625 4.609375 -32.761719 L 4.855469 -32.882812 C 5.824219 -33.003906 9.101562 -34.460938 9.585938 -34.703125 C 10.3125 -34.945312 10.070312 -35.066406 11.769531 -35.796875 C 12.011719 -35.796875 12.496094 -36.28125 13.105469 -36.523438 C 15.652344 -37.738281 13.46875 -36.886719 15.773438 -37.738281 C 16.867188 -38.464844 16.015625 -38.464844 15.53125 -38.464844 L 12.496094 -37.128906 C 10.921875 -36.402344 6.671875 -34.582031 5.460938 -34.097656 L 4.976562 -33.976562 L 4.730469 -33.976562 C 4.609375 -33.976562 4.730469 -34.460938 5.097656 -35.1875 L 5.21875 -35.550781 C 5.460938 -36.039062 6.1875 -36.886719 7.28125 -37.980469 C 7.765625 -38.585938 7.886719 -38.707031 7.765625 -38.949219 C 7.523438 -39.3125 7.039062 -39.3125 5.460938 -38.828125 C 3.519531 -38.101562 2.425781 -37.738281 1.457031 -37.25 C 1.335938 -37.25 1.335938 -37.128906 1.214844 -37.128906 C 0.972656 -37.007812 0.726562 -36.886719 0.605469 -37.007812 L 0.605469 -37.25 C 0.972656 -37.859375 4.246094 -41.132812 6.550781 -43.441406 L 8.613281 -45.503906 L 9.222656 -45.867188 L 13.832031 -47.929688 C 15.410156 -48.65625 16.382812 -49.019531 16.625 -49.144531 L 18.6875 -49.992188 C 19.65625 -50.476562 20.628906 -50.839844 20.75 -50.839844 C 20.992188 -50.839844 21.597656 -51.085938 22.082031 -51.328125 C 24.632812 -52.539062 30.214844 -55.089844 31.546875 -55.9375 L 32.277344 -56.179688 C 32.640625 -56.300781 32.882812 -56.542969 32.882812 -56.664062 C 33.003906 -56.785156 33.246094 -56.910156 33.488281 -57.03125 C 33.734375 -57.03125 34.21875 -57.273438 34.582031 -57.515625 L 36.402344 -58.605469 C 37.007812 -59.09375 38.222656 -59.820312 38.949219 -60.425781 L 40.769531 -61.761719 C 41.375 -62.125 42.953125 -63.703125 43.441406 -64.554688 C 44.046875 -65.402344 44.046875 -66.25 43.683594 -66.738281 Z M 42.46875 -64.917969 L 41.742188 -64.066406 C 41.5 -63.703125 41.132812 -63.21875 41.011719 -63.21875 L 39.800781 -62.246094 C 39.070312 -61.519531 37.25 -60.304688 35.675781 -59.335938 L 31.546875 -57.03125 L 30.09375 -56.300781 L 28.757812 -55.574219 L 26.453125 -54.480469 C 25.722656 -53.996094 24.875 -53.632812 24.511719 -53.511719 L 22.8125 -52.902344 L 20.386719 -51.8125 L 17.714844 -50.71875 C 17.109375 -50.476562 16.503906 -50.234375 16.382812 -50.234375 C 16.257812 -50.234375 15.773438 -49.992188 15.167969 -49.75 C 14.683594 -49.507812 14.074219 -49.265625 13.953125 -49.265625 C 13.832031 -49.265625 13.226562 -48.898438 12.496094 -48.535156 C 11.648438 -48.171875 11.285156 -48.050781 11.285156 -48.171875 C 11.285156 -48.292969 11.285156 -48.535156 11.40625 -48.535156 L 12.863281 -49.75 C 15.289062 -51.933594 19.777344 -55.695312 20.019531 -55.695312 L 20.992188 -56.421875 C 22.8125 -57.878906 26.695312 -60.425781 29.726562 -62.003906 C 32.035156 -63.097656 35.1875 -64.308594 37.371094 -64.917969 L 39.3125 -65.523438 C 39.679688 -65.644531 41.742188 -65.886719 42.105469 -65.765625 C 42.347656 -65.644531 42.46875 -65.523438 42.589844 -65.28125 C 42.589844 -65.160156 42.46875 -64.917969 42.46875 -64.917969 Z M 42.46875 -64.917969 "/></g></g></g><g fill="#3d3b3a" fill-opacity="1"><g transform="translate(197.554543, 162.652876)"><g><path d="M -1.214844 -33.125 C 0.121094 -33.367188 0.972656 -33.609375 3.15625 -34.703125 L 8.613281 -37.128906 L 10.191406 -37.859375 C 10.3125 -37.980469 10.3125 -38.34375 10.070312 -38.464844 L 9.949219 -38.585938 L 9.585938 -38.585938 L 9.34375 -38.464844 C 2.667969 -35.550781 -1.335938 -34.097656 -2.0625 -34.339844 C -2.304688 -34.460938 -2.304688 -34.582031 -1.941406 -34.945312 C -1.699219 -35.429688 -1.457031 -35.550781 -0.605469 -35.796875 C 0.726562 -36.160156 1.941406 -36.765625 4.003906 -38.222656 C 5.945312 -39.558594 6.796875 -40.285156 6.671875 -40.648438 C 6.429688 -41.375 5.339844 -41.253906 3.398438 -40.527344 C 0.972656 -39.679688 -1.820312 -37.492188 -3.035156 -35.550781 C -3.640625 -34.582031 -3.761719 -34.21875 -3.519531 -33.734375 C -3.398438 -32.882812 -3.15625 -32.882812 -1.214844 -33.125 Z M -0.242188 -37.128906 C -0.121094 -37.492188 1.941406 -38.949219 2.789062 -39.191406 C 3.519531 -39.558594 4.730469 -40.042969 4.730469 -39.800781 C 4.609375 -39.679688 2.789062 -38.464844 1.699219 -37.859375 C 0.363281 -37.128906 -0.484375 -36.886719 -0.242188 -37.128906 Z M -0.242188 -37.128906 "/></g></g></g></svg>