<svg xmlns="http://www.w3.org/2000/svg" version="1.0" viewBox="0 0 1954 1954"><path d="M975 438.6c-27.1 1.2-62.6 5.5-89.3 10.9-23.4 4.6-24.8 5.1-26.6 9.8-.7 2-1.1 4-.8 4.3s6.6-.8 13.9-2.5c45.6-10.6 84.1-14.6 132.8-13.8 30.3.6 47.2 1.8 70 5.2 113.1 17.1 218.4 69.3 299.4 148.5 70.8 69.3 117.5 147.9 145.5 245 3.6 12.5 4.1 13.5 6.2 13.2 5.8-.7 5.8-1.6-.7-23.9-22.9-78.3-62.8-150.3-117.5-211.8-20.3-22.9-51.7-52.2-75.9-70.7-37.9-29.1-87.1-57.1-131.6-74.8-40.6-16.2-91.3-29.5-131.7-34.5-29.7-3.7-72-5.9-93.7-4.9"/><path d="M1005.8 595.1c-4.5 3.9-14.1 12.8-21.2 19.7l-12.8 12.5-35.2.9c-36.2.9-79.6 3.8-85.3 5.9-1.8.6-3.3 1.8-3.3 2.6 0 1.3 1 1.5 6.3.9 3.4-.4 8.5-1.1 11.2-1.6 12-2.3 96.3-7 99.9-5.7 2 .8 3.5-1.1-22.4 27.4-7.5 8.1-16.1 17.9-19.1 21.8-3.1 3.8-8.7 10.4-12.5 14.5-9.2 9.9-29.6 33.5-35.7 41.3-2.7 3.4-6.6 8-8.7 10.2-9.9 10.6-53.4 67.2-57.3 74.5-6.7 12.7-7.6 22-2.1 22 2.7 0 3.2-1.5.9-2.4-.8-.3-1.5-1.5-1.5-2.6 0-9.8 37.4-58.4 94-122.4 10.8-12.2 22.3-25.3 25.5-29.2 6.7-7.9 30.9-34.4 43.2-47.2l7.9-8.4 28 .7c15.3.4 28.2 1 28.6 1.4.4.3-3.4 3.8-8.5 7.6-10 7.6-19.4 15.5-35.9 30.4-11.6 10.3-12.7 10.9-40.7 21.6-6.3 2.5-11.9 4.9-12.4 5.4-1.7 1.7 2.3 2.5 5.7 1.1 7.2-2.9 24.2-9 25.4-9 .8 0-5.1 6.9-13.1 15.2-21.7 22.9-25.8 27.9-25.5 30.2.6 4.2 4.3 3 12-3.6 8.5-7.4 13.2-10.3 20.7-12.9 3-1.1 5.6-1.9 5.7-1.9.2 0-1.4 2.8-3.6 6.2-4.6 7-5.3 12-2 13.8 1.7.9 3.8.5 10.8-2.1 11.3-4.1 41.2-19.2 39-19.6-.9-.2-11.1 3.7-22.7 8.6-11.6 5-21.5 9.1-22.1 9.1-.5 0-1-.6-1-1.4 0-3.1 2.1-6.7 7-12 5.3-5.9 5.9-7.3 3.6-8.2-1.6-.6-17.8 4.7-23.8 7.7-7.7 3.9-4.6-.6 12.2-17.6l17.3-17.4 16.6-7.4c9.1-4.2 20.7-9.2 25.6-11.2 17.8-7.4 49.7-22.2 61.5-28.7 3.6-2 3.8-2 21-.2 5.6.6 6 .9 6 3.2 0 2.2.3 2.4 3.2 1.8 3.6-.7 7.8-3.2 7.8-4.6 0-1.8-3.5-2.8-13.8-3.9-5.6-.6-10.9-1.1-11.7-1.1-3 0-1.2-1.9 8.2-8.6 12.7-9 16-11.9 19.5-17.3 5.7-9 3.1-11.9-9-10.1-18.3 2.8-48.3 15.1-67.5 27.5l-8.7 5.7-29-.7c-17.8-.5-29-1.1-29-1.7 0-1 21.3-22.5 30.3-30.5 3.1-2.8 4.5-4.7 4.1-5.8-1-2.6-3-1.7-11.6 5.6m117.2 5.4c2.4 2.9-8.7 13.4-25.6 24.1l-8.9 5.6-19.5-.7c-10.7-.3-19.8-1-20.3-1.4-.9-.9 12.7-9 24.9-14.7 8.1-3.8 31.5-12.3 37.9-13.7 4.5-1 10.3-.6 11.5.8m-52.7 32.2c5.3.3 9.7 1 9.7 1.5 0 1-25.3 13.8-36.5 18.3-4.4 1.8-14.3 5.8-22 8.9s-17 7.1-20.8 8.8c-7.5 3.5-9.8 3-5-1 1.7-1.5 8.3-7.1 14.5-12.5 6.3-5.3 15.9-13.1 21.3-17.2l10-7.5h9.5c5.2 0 13.9.3 19.3.7m-34.3 71.2c-7.3 2.3-11.4 4.5-18.2 9.7-8.8 6.9-14.4 14.7-13.4 19 1.5 5.7 9.6 3.9 36.9-8.2 11.5-5.1 19.7-9.3 19.7-10.1 0-.7-.4-1.3-.8-1.3s-6.9 2.5-14.3 5.6c-14.2 6-27.2 10.7-32.6 11.9-2.5.5-3.3.3-3.3-.7 0-2.6 2.4-4.6 7.6-6.2 5.9-1.9 14.5-6.9 22.3-12.9 5.9-4.5 7.1-6.5 5-7.8-1.9-1.2-2.5-1.1-8.9 1m2 3.9c0 .9-15.2 10.2-17.9 10.9-5.8 1.5.1-3.7 9.4-8.3 7.2-3.5 8.5-3.9 8.5-2.6m56 255.9c-8 19.1-14.5 35.2-14.5 35.7 0 1.6 7 1.9 8.2.4.5-.7 2.2-4.5 3.7-8.3 1.5-3.9 3.2-7.6 3.8-8.3.7-.8 4.8-1.2 13.8-1.2h12.8l3.2 8.2c1.8 4.6 3.8 8.9 4.3 9.5 1 1.4 9.3 1.8 10 .5.5-.9-28.8-70.6-29.9-70.9-.5-.2-7.4 15.3-15.4 34.4m19.8-2.4c2.3 6.1 4.2 11.5 4.2 11.9 0 .5-4.3.8-9.6.8-8.7 0-9.6-.2-9-1.8 2.5-6.8 9.1-22.2 9.6-22.2.3 0 2.4 5.1 4.8 11.3m-575.7-29.8c-13.1 3.7-21.6 13.4-24.2 27.9-3 16.1 4.8 31.9 19.1 38.4 7.8 3.7 19.3 4.2 27.4 1.3 7.9-2.8 8.3-3.3 6.3-7.6-1.9-4-2.2-4.1-6.8-1.8-4.5 2.2-13.8 2.9-19.4 1.3-5.5-1.5-11.9-6.9-14.8-12.4s-3.1-19.3-.3-24.6c2.6-4.9 7.4-9.8 12.1-12.3 5.7-3 15.4-3 21.5.1 4.3 2.1 4.6 2.1 5.8.5 1.8-2.5 2.6-6.3 1.6-7.2-4.6-4-19.8-6-28.3-3.6m171.1 33.7.3 35.3h9l.5-24.4.5-24.4 24.6 25.1c13.5 13.9 24.8 25.2 25.2 25.2s.7-16 .7-35.5V931h-9v24.5c0 13.5-.3 24.5-.8 24.5-.4 0-11.7-11.3-25-25-13.4-13.8-24.8-25-25.3-25-.6 0-.8 13.9-.7 35.2m240-.1.3 35.4h8l.5-21.3.5-21.3 11.8 16.6c6.5 9.1 12.1 16.5 12.5 16.5s6.1-7.7 12.7-17.1l12-17 .3 21.4.2 21.4 3.6.6c6.8 1.1 6.4 3.1 6.4-35.4 0-19.2-.3-34.9-.7-34.9-.5 0-8.2 10.4-17.2 23.1-9 12.6-16.8 22.8-17.4 22.6s-8.2-10.4-16.9-22.7-16-22.6-16.3-22.8c-.3-.3-.4 15.4-.3 34.9m272.7-33.7c-13.6 3.6-22.5 14-24.9 28.9-2.5 16 5.5 31.4 19.8 38 6.8 3.2 22.6 3.2 29.5 0 5.1-2.4 5.6-3.7 3.2-8.2l-1.4-2.9-4.3 2.1c-2.8 1.4-6.7 2.3-11.3 2.5-6.1.3-7.7 0-12.5-2.5-22.3-11.4-16-47 8.8-50 4.3-.5 10 .9 17.3 4.1 1.2.5 2-.3 3.2-3.4 1.5-3.9 1.5-4.1-.6-5.5-3.1-2-13.4-4.5-18.2-4.4-2.2 0-6.1.6-8.6 1.3M632 965.5v34.5l2.4.6c1.4.3 3.3.4 4.3.2 1.7-.3 1.8-2.3 2.1-35.1l.2-34.7h-9zm206.2.2.3 34.8h45v-9l-18.2-.3-18.3-.2v-21h32v-9h-32v-21h36v-9h-45zm476.8-8.9v25.8l2.6 5.3c4.6 9.2 13.8 13.8 25.7 12.9 7.6-.6 13.4-3.5 17.6-8.5 5.4-6.5 6.1-10.9 6.1-37.5V931h-8.9l-.3 24.7c-.3 22.9-.5 25.1-2.4 28.3-3.1 5.4-8.7 8.2-15.7 7.7-6.1-.4-9.5-2.2-13.1-7.1-2-2.6-2.1-4.3-2.4-28.2l-.3-25.4h-8.9zm119.2 8.9.3 34.8 13.1-.1c14.2-.2 18.8-1.2 23.5-5.1 9.8-8.3 8.4-21.9-3.1-29.5l-2.5-1.7 2.3-1.6c3.4-2.5 6.2-8.8 6.2-14.1 0-6.6-2.4-11-7.9-14.2-4.3-2.5-5.5-2.7-18.4-3l-13.7-.4zm27.4-22.6c2.1 2.1 2.6 3.6 2.6 7.5 0 4.2-.5 5.3-3.1 7.6-2.8 2.5-3.9 2.8-10.6 2.8h-7.5v-21.2l8 .4c7 .3 8.3.6 10.6 2.9m.6 29.3c4.6 2.2 6.5 6.3 5.2 11.4-1.3 5.5-7.5 8.4-16.9 8l-7-.3-.3-9.4c-.1-5.2 0-10.1.3-10.9.7-2 13.7-1.2 18.7 1.2m-999.4 152.8c-2 .7-2.8 1.7-2.8 3.3 0 2.8 8.3 30.6 14.5 48.5 16.1 46.2 43.1 97.3 73.5 139 91.5 125.7 230.6 206.7 385 224.4 52.1 6 106.2 4.3 158.5-4.9 13.2-2.3 39.4-8 40-8.7.9-.9 3.5-8.2 3.1-8.6-.3-.2-7.4 1.2-15.8 3.1-43.2 10-77.4 13.9-123.8 14-31.7.1-49.8-1.2-81-5.9-112.8-16.9-217-68.6-297.9-147.9-69.7-68.3-117.7-148.3-144.1-240.1-2.6-9.3-5.2-16.9-5.6-17-.5-.1-2.1.2-3.6.8m476.8 62.5c-6.6 15.8-7.4 18.3-5.7 18.3 2.5 0 4.1-1.5 5.1-4.6l1.2-3.5 6.6.3c6.5.3 6.6.3 7.6 3.6.9 3.3 4.9 5.4 6.5 3.6.9-1-12.6-33.4-13.9-33.4-.4 0-3.7 7.1-7.4 15.7m9.2-.4c1.8 5 1.5 5.7-2.3 5.7-1.9 0-3.5-.2-3.5-.5 0-1.3 3.3-8.5 3.9-8.5.4 0 1.2 1.5 1.9 3.3m37.4 1.4c.3 16 .4 16.8 2.3 16.8 1.7 0 2.1-.8 2.5-5.5l.5-5.5 4.6-.5c8.8-1 13.4-7.1 10.9-14.6-1.8-5.2-5.9-7.4-14.3-7.4H986zm14-10c4.4 4 .4 10.8-5.9 10.1-2.5-.3-2.8-.7-3.1-4.7-.2-2.4-.1-5 .2-5.7.7-1.9 6.5-1.8 8.8.3m33 10c.3 16 .4 16.8 2.3 16.8 1.7 0 2-.8 2.3-5.6l.3-5.7 5.1-.4c6.5-.7 10.8-4.8 10.8-10.3 0-7.9-4.6-11.5-14.9-11.5h-6.1zm13.8-9.7c4.1 4.1 1.6 9.2-4.6 9.4l-3.9.1-.3-5.8-.3-5.7h3.6c2.2 0 4.3.8 5.5 2"/></svg>