<svg xmlns="http://www.w3.org/2000/svg" version="1.0" viewBox="0 0 1954 1954"><path d="M966 439c-26.2 1.5-62.3 6.3-86.5 11.6-8.8 1.9-16.8 3.7-17.7 4-1.6.5-5.4 9.4-4 9.4.3 0 8.5-1.8 18.2-3.9 18.6-4.2 40.9-7.9 65.5-10.8 12-1.4 22.8-1.8 54-1.8 40.7.1 47.6.5 81.5 5.6 56.8 8.6 113.4 27 165.6 53.9 91.7 47.2 167.6 118.7 219.8 206.8 21 35.6 37.3 72.4 51.4 116.7 3.9 12.1 7.6 23.9 8.1 26.2l1.1 4.1 3.5-1.1c2.6-.8 3.5-1.6 3.5-3.2 0-3.1-10.8-38.2-17-55-22.8-62.2-53.9-115.9-97.3-168-13.3-15.8-48.9-51.3-65.2-64.9-55.7-46.4-114.8-79.5-181.6-101.7-42.3-14.1-81.3-22.3-124.9-26.3-20.8-2-57.8-2.7-78-1.6"/><path d="M1008.8 592.7c-2.9 2.7-6.9 6.2-8.8 7.7s-9.1 8.3-15.9 14.9l-12.4 12.2-33.6.7c-32.2.7-51.8 1.7-73.6 3.9-11.8 1.2-16.5 2.5-16.5 4.6 0 1.3 1 1.4 6.8.8 3.7-.3 8.5-1 10.7-1.5 6.3-1.4 25.5-2.9 56.5-4.5 32-1.7 43.7-1.9 44.4-.7.2.4-6.6 8.4-15.1 17.7-8.5 9.4-19.9 22.2-25.2 28.5s-12.1 14.2-15.2 17.5c-3 3.3-9.9 11.2-15.3 17.5-5.3 6.3-11.1 12.9-12.7 14.7-1.7 1.7-5.4 6.1-8.2 9.6-2.9 3.6-10.1 12.3-16.1 19.3-12.2 14.5-47.6 61-47.6 62.6 0 .5-.8 2.2-1.9 3.6-1 1.5-2.5 4.9-3.5 7.6-2.7 8.1-2 12.6 2 12.6 2.7 0 3.2-1.5.9-2.4-2.4-.9-1.8-4 2.3-11.9 8.5-16.4 47.4-65.1 92.2-115.2 5.8-6.5 15.2-17.3 21-24 11.5-13.4 32-36 45.1-49.8l8.4-8.8 28 .7c15.4.4 28.3.9 28.7 1.3.4.3-4.6 4.7-11 9.7s-19.2 15.7-28.4 23.7c-18.2 16-17.4 15.5-45.7 26.3-6.3 2.4-11.9 4.8-12.4 5.3-1.7 1.7 2.3 2.5 5.7 1.1 7.2-2.9 24.2-9 25.4-9 .8 0-4.9 6.6-12.6 14.7-20.7 21.9-26.2 28.5-26 30.8.6 4.1 4.4 2.9 12-3.7 8.2-7.1 12.8-10 20.2-12.9 6.7-2.5 7.1-2.4 4.8.8-3.3 4.8-6.2 11.1-6.2 13.7 0 4.3 3.1 5.1 10.6 2.6 9.2-3.1 43.3-20.3 41.1-20.8-1-.2-10.6 3.5-21.4 8.2-22.6 9.9-24.3 10.5-24.3 8.2 0-2.8 3-7.8 7.7-12.9 7.8-8.4 3.9-9.2-13.2-2.6-5.9 2.3-10.9 3.9-11.2 3.6-1-1.1 3.6-6.2 18.9-21.3l15.3-15.1 18.5-8.1c10.2-4.5 23-9.9 28.5-12.1 10.7-4.2 48.7-22.3 54.5-25.9 4-2.5 7.3-2.6 20-.8 7.9 1.1 8.5 1.3 8.2 3.4-.4 2.7 2.2 2.9 7.3.5 3.9-1.8 4.5-3.7 1.7-5.2-1.6-.8-19.1-3.1-23.8-3.1-2.8 0-1.2-1.7 7.4-7.7 12.2-8.6 17-13 20.4-18.2 5.5-8.8 3-11.7-9-10-17.2 2.4-46.2 14.2-66.7 27.1l-10 6.3-18.5-.6c-10.2-.4-23.1-.7-28.7-.8-6.8-.1-10.3-.5-10.3-1.2 0-1.1 18.3-19.6 29.4-29.7 3.1-2.9 5.6-5.8 5.3-6.5-.8-2.6-3.9-1.6-8.9 3m114.2 7.8c2.5 3-10.6 15-28.2 25.8l-6.3 3.9-19.4-.6c-10.6-.4-19.8-.9-20.3-1.2-2.6-1.7 26.6-16.8 44.2-22.9 19.3-6.7 27.5-8.1 30-5m-53.7 32.2c5.9.3 10.7 1 10.7 1.4 0 1.1-25.8 14.1-36.5 18.4-4.4 1.8-13.2 5.4-19.5 7.9-6.3 2.6-15.5 6.5-20.5 8.7-9.4 4.1-10.5 4.4-10.5 3.1 0-1.1 27.3-24.3 38.6-32.8l9.9-7.3 8.6-.1c4.7 0 13.4.3 19.2.7m-33.5 71.2c-10.9 3.5-22.6 12-28.3 20.3-3.9 5.8-4.3 7.9-1.9 10.2 1.6 1.7 6.4 1.5 13.4-.6 7.8-2.3 42-18.1 42-19.4 0-.8-.4-1.4-1-1.4-.5 0-7.9 2.9-16.4 6.5-16.3 6.7-32.3 12.1-33.2 11.2-.3-.3-.3-1.5.1-2.6.4-1.3 2.9-2.9 7.7-4.7 7.1-2.7 22.6-12.4 26.2-16.3 2.1-2.3 1.5-5.1-1.1-5-1 0-4.4.8-7.5 1.8m2.2 3.8c0 1.6-16.6 11.3-19.1 11.3-2.7 0 3.9-5.3 10.6-8.6 7.3-3.5 8.5-3.9 8.5-2.7m56 255.9c-8 19-14.7 35-14.9 35.6-.2.5 1.7.8 4.4.6l4.7-.3 3.5-8.8 3.5-8.8 13.5.3 13.5.3 3.2 8.5 3.3 8.5 5.6.3 5.5.3-8.5-20.3c-4.7-11.2-11.4-27-14.8-35.3-3.5-8.2-6.7-15-7.1-15.2-.5-.1-7.4 15.3-15.4 34.3m19.8-2.4c2.3 6.2 4.2 11.6 4.2 12 0 .5-4.3.8-9.6.8-8.7 0-9.6-.2-9-1.8 2.6-7 9.1-22.2 9.6-22.2.3 0 2.5 5.1 4.8 11.2m-575.5-29.7c-25.3 7.1-33.7 40.7-15 59.6 9 9.1 24.6 12.4 37.1 8 7.9-2.8 8.3-3.3 6.3-7.6-1.9-4-2.2-4.1-6.8-1.8-4.5 2.2-13.8 2.9-19.4 1.3-5.5-1.5-11.9-6.9-14.8-12.4s-3.1-19.3-.3-24.6c7.7-14.5 22.3-18.5 37.8-10.2.8.4 3.8-5.1 3.8-7.1 0-2.3-9.5-5.8-16.8-6.3-4.2-.2-8.7.2-11.9 1.1M709 965v35h10l.1-24.3v-24.2l24.8 25.2c13.6 13.9 25.1 25.3 25.4 25.3.4 0 .7-16 .7-35.5V931h-9v24.5c0 13.5-.4 24.5-.8 24.5s-11.7-11.3-25.1-25c-13.3-13.8-24.7-25-25.2-25s-.9 14.3-.9 35m240-.2v35.2h9l.2-21 .3-21.1 11.8 16.6c6.5 9.1 12.1 16.5 12.5 16.5s6.1-7.7 12.7-17.2l12-17.1.3 21.7.2 21.6h10v-35c0-19.3-.3-35-.7-35-.5 0-8.2 10.4-17.2 23.1-9 12.6-16.8 22.8-17.4 22.6s-8.2-10.4-16.9-22.7-16-22.6-16.3-22.8c-.3-.3-.5 15.3-.5 34.6m272.9-33.4c-17.4 4.7-27.8 21.8-24.8 40.7 1.9 11.6 9.3 21.4 19.7 26.2 6.8 3.2 22.6 3.2 29.5 0 5.1-2.4 5.6-3.7 3.2-8.2l-1.4-2.9-4.3 2.1c-2.8 1.4-6.7 2.3-11.3 2.5-6.1.3-7.7 0-12.5-2.5-22.3-11.4-16-47 8.8-50 4.3-.5 10 .9 17.3 4.1 1.2.5 2-.3 3.2-3.4 1.5-3.9 1.5-4.1-.6-5.5-3.1-2-13.4-4.5-18.2-4.4-2.2 0-6.1.6-8.6 1.3m-589.2.2c-.4.4-.7 16-.7 34.6v33.8h10l-.2-34.3-.3-34.2-4-.3c-2.3-.2-4.4 0-4.8.4M838 965.5v34.5h46.1l-.3-4.3-.3-4.2-18.2-.3-18.3-.2v-21h32v-9h-32v-21h36v-9h-45zm477-8.7c0 25.7 0 25.8 2.5 30.9 4.7 9.3 13.7 13.9 25.3 13.1 8.1-.6 13.8-3.3 18.1-8.5 5.4-6.5 6.1-10.9 6.1-37.5V931h-8.9l-.3 24.7c-.3 27.5-.6 28.9-7 33.5-4.5 3.2-15.3 3.3-19.4.2-6.9-5.1-6.9-5-7.2-33l-.3-25.4h-8.9zm119 8.6v34.6h13.3c14.7 0 19.2-.9 23.7-4.7 9.9-8.3 8.5-21.8-3-29.5l-2.5-1.7 2.3-1.6c3.4-2.5 6.2-8.8 6.2-14.1 0-6.6-2.4-11-7.9-14.2-4.3-2.5-5.5-2.7-18.3-3l-13.8-.4zm27.6-22.3c2.1 2.1 2.6 3.6 2.6 7.5 0 4.2-.5 5.3-3.1 7.6-2.8 2.5-3.9 2.8-10.6 2.8h-7.5v-21.2l8 .4c7 .3 8.3.6 10.6 2.9m.6 29.3c4.6 2.2 6.5 6.3 5.2 11.4-1.3 5.5-7.5 8.4-16.9 8l-7-.3-.3-9.4c-.1-5.2 0-10.1.3-10.9.7-2 13.7-1.2 18.7 1.2m-999.4 153.8c-1.8.6-2.8 1.7-2.8 3 0 2.7 7 26.6 12.5 42.8 15.1 44 38.8 91.9 64.5 130 69 102.6 175.1 181.5 293 217.9 38.6 11.9 69.2 18.2 111.5 22.8 23.1 2.5 83.4 2.5 106.5 0 26.7-3 74.2-11.4 81.5-14.6 1.9-.8 5.2-7.7 4.2-8.7-.2-.2-6 .9-12.8 2.5-53.9 12.8-111.2 17.6-164.4 13.6-74.1-5.5-140.3-23.8-206-57-26.5-13.3-39.4-20.9-61.7-36-106.5-72.5-184.5-181.4-218.1-304.7-1.9-6.7-3.8-12.3-4.3-12.4s-2.1.2-3.6.8m476.8 61.5c-3.6 8.7-6.6 16.1-6.6 16.5 0 .5 1.1.8 2.4.8 1.9 0 2.7-.8 3.6-3.5l1.2-3.6 6.6.3c6.5.3 6.6.3 7.6 3.5.8 2.9 1.3 3.3 4.3 3.3 2.9 0 3.2-.2 2.5-1.8-.6-.9-3.8-8.3-7.2-16.5-3.4-8.1-6.5-14.7-6.9-14.7-.5 0-3.8 7.1-7.5 15.7m9.2-.4c1.8 5 1.5 5.7-2.3 5.7-1.9 0-3.5-.2-3.5-.5 0-1.3 3.3-8.5 3.9-8.5.4 0 1.2 1.5 1.9 3.3m37.2 1.2v16.5h2.4c2.3 0 2.5-.4 2.8-5.3l.3-5.2 4.6-.5c6.1-.7 9.6-3.2 11-7.8.9-3.1.8-4.5-.5-7.5-1.9-4.7-6.3-6.7-14.6-6.7h-6zm14.2-9.8c4.4 4 .4 10.8-5.9 10.1-2.5-.3-2.8-.7-3.1-4.7-.2-2.4-.1-5 .2-5.7.7-1.9 6.5-1.8 8.8.3m32.8 9.8v16.5h2.5c2.4 0 2.5-.3 2.5-5.4v-5.3l5.2-.5c6.5-.7 10.8-4.8 10.8-10.3 0-7.9-4.6-11.5-14.9-11.5h-6.1zm14-9.5c4.1 4.1 1.6 9.2-4.6 9.4l-3.9.1-.3-5.8-.3-5.7h3.6c2.2 0 4.3.8 5.5 2"/></svg>